<?xml version="1.0" encoding="UTF-8" standalone="no"?>
<!-- Created with Inkscape (http://www.inkscape.org/) -->

<svg
   version="1.1"
   id="svg2"
   width="364.93332"
   height="434.22668"
   viewBox="0 0 364.93332 434.22668"
   sodipodi:docname="FG_LogoLockup_Stockholm_Black.eps"
   xmlns:inkscape="http://www.inkscape.org/namespaces/inkscape"
   xmlns:sodipodi="http://sodipodi.sourceforge.net/DTD/sodipodi-0.dtd"
   xmlns="http://www.w3.org/2000/svg"
   xmlns:svg="http://www.w3.org/2000/svg">
  <defs
     id="defs6" />
  <sodipodi:namedview
     id="namedview4"
     pagecolor="#ffffff"
     bordercolor="#000000"
     borderopacity="0.25"
     inkscape:showpageshadow="2"
     inkscape:pageopacity="0.0"
     inkscape:pagecheckerboard="0"
     inkscape:deskcolor="#d1d1d1" />
  <g
     id="g8"
     inkscape:groupmode="layer"
     inkscape:label="ink_ext_XXXXXX"
     transform="matrix(1.3333333,0,0,-1.3333333,0,434.22667)">
    <g
       id="g10"
       transform="scale(0.1)">
      <path
         d="m 54.4297,896.59 c 0,49.539 -5.0391,61.109 -54.4297,64.621 v 9.07 h 267.543 c 0.109,-21.179 3.199,-61.941 5.773,-94.902 l -10.343,-1.891 c -6.887,31.942 -14.387,48.403 -23.852,59.532 -10.082,13.031 -25.199,21.902 -75.277,21.902 h -41.199 c -17.629,0 -19.137,-1.402 -19.137,-19.192 v -157.8 h 63.07 c 56.992,0 63.477,6.519 72.223,49.449 h 10.183 V 703.66 h -10.183 c -8.746,48.692 -15.231,55.199 -72.223,55.199 h -63.07 V 634.461 c 0,-49.563 5.07,-61.109 64.273,-64.582 v -8.93 H 0 v 8.93 c 49.3906,3.473 54.4297,15.019 54.4297,64.582 V 896.59"
         style="fill:#231f20;fill-opacity:1;fill-rule:nonzero;stroke:none"
         id="path12" />
      <path
         d="m 408.949,824.809 c -43.312,0 -74.461,-44.289 -74.461,-113.297 0,-82.992 33.45,-144.102 89.418,-144.102 41.59,0 74.055,30.719 74.055,121.539 0,70.571 -29.266,135.86 -88.375,135.86 z m 7.766,14.031 c 79.285,0 134.5,-62.059 134.5,-137.649 0,-98.019 -71.727,-147.812 -134.86,-147.812 -85.335,0 -136.386,67.582 -136.386,136.781 0,102.141 80.289,148.68 136.109,148.68 h 0.637"
         style="fill:#231f20;fill-opacity:1;fill-rule:nonzero;stroke:none"
         id="path14" />
      <path
         d="M 603.051,808.77 H 561.48 l -2.671,6.359 17.425,16.141 h 26.817 v 36.519 l 37.929,45.492 7.274,-2.019 V 831.27 h 70.687 c 5.278,-6.942 3.395,-17.04 -4.878,-22.5 H 648.254 V 646.398 c 0,-52.687 21.305,-63.07 37.777,-63.07 16.426,0 29.227,5.192 38.653,9.582 l 4.07,-9.609 -46.395,-23.68 c -8.574,-4.871 -15.23,-6.242 -20.129,-6.242 -39.57,0 -59.179,25.512 -59.179,73.371 v 182.02"
         style="fill:#231f20;fill-opacity:1;fill-rule:nonzero;stroke:none"
         id="path16" />
      <path
         d="m 853.035,824.809 c -43.312,0 -74.461,-44.289 -74.461,-113.297 0,-82.992 33.453,-144.102 89.418,-144.102 41.594,0 74.055,30.719 74.055,121.539 0,70.571 -29.266,135.86 -88.375,135.86 z m 7.766,14.031 c 79.289,0 134.5,-62.059 134.5,-137.649 0,-98.019 -71.727,-147.812 -134.856,-147.812 -85.34,0 -136.386,67.582 -136.386,136.781 0,102.141 80.285,148.68 136.109,148.68 h 0.633"
         style="fill:#231f20;fill-opacity:1;fill-rule:nonzero;stroke:none"
         id="path18" />
      <path
         d="m 1127.7,825.922 c -26.21,0 -51.2,-25.863 -51.2,-74.793 0,-53.938 23.12,-90.91 60.79,-90.91 25.71,0 51.35,22.281 51.35,75.281 0,52.488 -22.12,90.422 -60.32,90.422 z m 7.62,-266.442 c -24.42,0 -40.43,-3.871 -53.22,-12.089 -16.48,-11.09 -27,-28.493 -27,-49.852 0,-41.98 37.53,-73.91 89.02,-73.91 63.27,0 90.92,34.359 90.92,78.082 0,23.238 -12.66,40.75 -31.6,48.73 -17.37,7.789 -37.7,9.039 -67.5,9.039 z m 0.66,279.36 c 19.71,0 39.18,-6.199 56.45,-16.86 32.61,2.309 59.1,6.04 84.21,9.719 l 3.15,-4.57 c -5.93,-9.508 -17.94,-22.828 -27.47,-29.051 l -34.94,1.524 c 12.21,-12.793 19.5,-32.114 19.5,-51.141 0,-68.27 -59.35,-101.172 -108.12,-101.172 -3.63,0 -10.75,0 -23.07,1.152 -10.59,-3.949 -27.1,-15.07 -27.1,-26.121 0,-13.441 15.37,-25.101 42.75,-25.101 18.52,0 41.96,1.769 64.5,1.769 34.74,0 86.54,-11.527 86.54,-73.558 0,-61.918 -71,-126.61 -153.8,-126.61 -70.26,0 -107.15,39.59 -108.72,77.52 -0.52,17.449 5.55,30.398 14.8,40.59 10.15,11.261 37.37,31.09 55.12,43.8 -21.96,5.508 -40.02,21.262 -47.42,34.579 -5.24,9.5 -6.58,18.16 -5.96,24.132 25.22,7.5 51.22,23.231 61.43,34.047 -35.69,12.051 -62.45,43.723 -62.45,82.231 0,70.73 61.6,103.121 109.96,103.121 h 0.64"
         style="fill:#231f20;fill-opacity:1;fill-rule:nonzero;stroke:none"
         id="path20" />
      <path
         d="m 1326.15,757.172 c 0,40.988 -3.54,44.859 -38.89,50.117 v 7.672 c 28.01,4.551 54.22,12.121 84.09,26.18 v -69.352 h 1.31 c 14.92,27.32 44.88,67.051 74.79,67.051 19.58,0 33.26,-17.09 33.26,-30.301 0,-10.32 -7.44,-22.109 -19.17,-27.75 -7.02,-3.148 -12.18,-2.359 -15.37,0.801 -9.37,8.769 -17.1,13.238 -28.09,13.238 -13.44,0 -30,-12.019 -46.73,-48.09 V 622.699 c 0,-39.91 5.13,-49.398 52.9,-52.82 v -8.93 H 1284.3 v 8.93 c 36.27,3.422 41.85,12.832 41.85,52.23 v 135.063"
         style="fill:#231f20;fill-opacity:1;fill-rule:nonzero;stroke:none"
         id="path22" />
      <path
         d="m 1632.56,711.07 c -12.53,-7.449 -43.61,-20.711 -57.77,-27.699 -23.61,-11.379 -37.23,-23.301 -37.23,-45.59 0,-33.84 24.16,-50.679 44.16,-50.679 15.98,0 35.91,7.718 50.84,23.66 z m 45.07,-86.3 c 0,-24.7 9.23,-35.34 20.7,-35.34 10,0 18.13,2.461 25.03,6.179 l 4.67,-9.57 -57.09,-32.66 c -5.93,0 -17.22,5.101 -24.15,12.492 -7.03,7.57 -11,17.32 -13.99,29.258 -24.3,-17.41 -57.19,-41.75 -71.75,-41.75 -44.57,0 -73.46,37.531 -73.46,72.742 0,30.098 15.82,48.188 54.71,61.957 29.34,10.352 73.06,25.621 90.26,38.344 l 0.12,18.117 c -0.12,46.859 -18.07,69.5 -51.25,69.5 -11.22,0 -21.01,-5.09 -27.22,-11.641 -7.61,-7.957 -14.21,-21.32 -18.56,-42.527 -2,-8.699 -6.97,-13.59 -17.44,-13.59 -10.9,0 -24.86,9.578 -24.86,23.539 0,9.5 6.89,17.262 18.07,25.211 18.69,12.649 60.88,36.149 93.5,43.809 15.41,0 34.47,-5.699 48.05,-16.512 21.41,-16.547 24.66,-39.867 24.66,-62.656 V 624.77"
         style="fill:#231f20;fill-opacity:1;fill-rule:nonzero;stroke:none"
         id="path24" />
      <path
         d="m 1768.74,808.77 h -45.46 l -2.65,6.41 17.5,16.09 h 30.61 v 15.589 c 0,24.641 3.23,43.532 6.72,55.032 4.27,12.359 15.13,44.019 49.18,72.058 26.32,21.031 51.33,31.761 75.21,34.291 35.14,-1.26 55.11,-19.119 63.61,-30.939 4.84,-6.531 5,-13.942 2.81,-18.879 -2.52,-4.602 -8.03,-10.641 -13.87,-14.652 -7.2,-4.75 -13.84,-4.739 -19.13,1.742 -13.59,16.707 -36.71,36.918 -63.14,36.918 -15.73,0 -25.52,-7.289 -34.97,-19.469 -13.03,-15.34 -21.21,-57.492 -21.21,-106.231 v -25.46 h 43.11 c 49.12,0 84.62,1.21 117.77,7.57 V 621.301 c 0,-38.699 5.67,-48.09 43.53,-51.422 v -8.93 h -130.73 v 8.93 c 36.51,3.332 42,12.723 42,51.422 v 153.75 c 0,28.801 -1.26,33.719 -31.6,33.719 h -84.08 V 621.191 c 0,-38.531 5.13,-47.929 43.04,-51.312 v -8.93 h -132.92 v 8.93 c 39.24,4 44.67,12.84 44.67,51.312 V 808.77"
         style="fill:#231f20;fill-opacity:1;fill-rule:nonzero;stroke:none"
         id="path26" />
      <path
         d="m 2188.75,758.352 c -12.73,36.738 -36.91,65.867 -68.5,65.867 -25.3,0 -42.18,-18.828 -42.18,-43.539 0,-29.602 26.96,-46.321 54.04,-57.461 46.79,-19.59 75.24,-43.41 75.24,-84.617 0,-55.68 -50.68,-85.223 -99.65,-85.223 -32.4,0 -60.53,12.152 -70.25,22.383 -3.2,11.508 -7.75,47.957 -9.78,74.468 l 8.31,1.27 c 12.35,-39.191 44.3,-83.5 83.42,-83.5 25.31,0 45.6,14.32 45.6,47.07 0,31.969 -19.46,49.59 -53.38,64.539 -31.81,14.282 -72.85,35.129 -72.85,77.77 0,44.66 37.74,81.359 93.53,81.461 24.05,0 40.61,-4.988 53.1,-10.192 4.1,-15.089 10.49,-53.148 11.76,-67.546 l -8.41,-2.75"
         style="fill:#231f20;fill-opacity:1;fill-rule:nonzero;stroke:none"
         id="path28" />
      <path
         d="m 2250.66,928.91 c 0,39.11 -3.28,45.078 -39.85,50.121 v 7.25 c 28.14,3.11 62.16,13.469 85.06,21.959 V 708.102 c 20.74,5.117 31.53,13.289 40.68,22.488 13.73,13.25 33.19,36.07 47.24,58.148 15.81,24.082 11.09,28.242 -19.29,31.711 v 8.942 l 120.26,5.66 v -8.93 c -39.28,-8.441 -50.92,-15.23 -76.04,-39.359 -17.24,-16.782 -30.09,-29.91 -56.43,-61.473 14.4,-22.309 73.08,-95.641 97.69,-119.547 28.08,-27.32 36.01,-33.371 56.4,-35.863 v -8.93 l -76.05,-1.898 c -28.54,28.699 -70.28,82.281 -101.34,123.211 -8.81,11.968 -14.14,16.16 -21.62,16.297 -4.07,0.132 -7.83,-0.399 -11.5,-1.571 v -75.277 c 0,-39.109 4.7,-48.41 42.97,-51.832 v -8.93 h -131.79 v 8.93 c 38.27,3.422 43.6,12.723 43.6,51.832 l 0.01,307.199"
         style="fill:#231f20;fill-opacity:1;fill-rule:nonzero;stroke:none"
         id="path30" />
      <path
         d="m 2641.58,711.07 c -12.54,-7.449 -43.61,-20.711 -57.77,-27.699 -23.6,-11.379 -37.24,-23.301 -37.24,-45.59 0,-33.84 24.16,-50.679 44.16,-50.679 15.99,0 35.91,7.718 50.85,23.66 z m 45.07,-86.3 c 0,-24.7 9.22,-35.34 20.69,-35.34 10,0 18.15,2.461 25.04,6.179 l 4.66,-9.57 -57.09,-32.66 c -5.93,0 -17.22,5.101 -24.14,12.492 -7.04,7.57 -11,17.32 -13.98,29.258 -24.31,-17.41 -57.21,-41.75 -71.76,-41.75 -44.56,0 -73.47,37.531 -73.47,72.742 0,30.098 15.83,48.188 54.72,61.957 29.33,10.352 73.07,25.621 90.26,38.344 l 0.11,18.117 c -0.11,46.859 -18.07,69.5 -51.24,69.5 -11.22,0 -21.02,-5.09 -27.23,-11.641 -7.61,-7.957 -14.21,-21.32 -18.53,-42.527 -2.02,-8.699 -6.99,-13.59 -17.45,-13.59 -10.91,0 -24.87,9.578 -24.87,23.539 0,9.5 6.9,17.262 18.07,25.211 18.68,12.649 60.88,36.149 93.51,43.809 15.39,0 34.46,-5.699 48.03,-16.512 21.41,-16.547 24.67,-39.867 24.67,-62.656 V 624.77"
         style="fill:#231f20;fill-opacity:1;fill-rule:nonzero;stroke:none"
         id="path32" />
      <path
         d="m 1813.15,1337.73 c -0.02,0.07 0,0.21 0,0.34 -0.02,0.09 -0.04,0.14 -0.04,0.24 v 104.81 h 295.91 v 122.08 l -295.91,-0.03 0.04,99.9 396.37,0.04 -0.02,122.83 -530.36,0.03 -0.02,-389.57 v -140.83 h 42.7 v 0.02 l 15.18,0.02 c 42.34,2.33 75.94,37.23 76.15,80.12"
         style="fill:#231f20;fill-opacity:1;fill-rule:nonzero;stroke:none"
         id="path34" />
      <path
         d="m 1022.2,1354.36 -99.583,-99.58 30.164,-30.18 v 0.04 l 10.742,-10.72 c 31.633,-28.35 80.057,-27.45 110.527,2.75 0.08,0.08 0.16,0.15 0.26,0.24 0.06,0.05 0.1,0.11 0.18,0.17 l 74.09,74.14 209.22,-209.2 86.31,86.31 -209.21,209.18 70.67,70.65 280.24,-280.26 86.87,86.88 -375.03,375.03 -275.45,-275.45"
         style="fill:#231f20;fill-opacity:1;fill-rule:nonzero;stroke:none"
         id="path36" />
      <path
         d="m 526.563,1787.73 -140.84,-0.02 v -57.84 c 2.351,-42.35 37.265,-76.01 80.125,-76.16 0.121,-0.02 0.207,-0.02 0.332,-0.05 0.09,0 0.215,0.05 0.273,0.03 H 571.262 V 1357.8 h 122.047 l 0.019,295.87 99.887,0.02 0.008,-396.39 122.863,0.02 0.027,530.37 -389.55,0.04"
         style="fill:#231f20;fill-opacity:1;fill-rule:nonzero;stroke:none"
         id="path38" />
      <path
         d="m 382.891,2544.21 -30.176,-30.15 0.047,-0.04 -10.758,-10.76 c -28.266,-31.59 -27.367,-80.05 2.832,-110.47 0.086,-0.09 0.125,-0.19 0.184,-0.26 0.07,-0.06 0.195,-0.1 0.222,-0.17 l 74.102,-74.09 -209.215,-209.21 86.285,-86.35 209.262,209.24 70.64,-70.67 -280.293,-280.31 86.868,-86.86 375.039,375.05 -275.41,275.44 -99.629,99.61"
         style="fill:#231f20;fill-opacity:1;fill-rule:nonzero;stroke:none"
         id="path40" />
      <path
         d="M 385.449,2550.71 H 915.84 l 0.019,389.54 -0.019,140.84 -42.649,0.02 v 0 l -15.222,-0.02 c -42.332,-2.37 -75.965,-37.24 -76.125,-80.14 0,-0.12 -0.008,-0.19 -0.039,-0.29 0,-0.08 0.039,-0.2 0.031,-0.28 l 0.008,-104.8 -295.887,-0.04 v -122 l 295.887,-0.05 -0.039,-99.86 -396.367,-0.04 0.011,-122.88"
         style="fill:#231f20;fill-opacity:1;fill-rule:nonzero;stroke:none"
         id="path42" />
      <path
         d="m 1572.76,2984.33 99.54,99.63 -30.11,30.12 v 0 l -10.71,10.7 c -31.61,28.3 -80.1,27.44 -110.57,-2.78 -0.09,-0.05 -0.14,-0.11 -0.21,-0.2 -0.07,-0.06 -0.15,-0.11 -0.22,-0.21 l -74.1,-74.09 -209.22,209.21 -86.31,-86.31 209.21,-209.23 -70.64,-70.64 -280.31,280.28 -86.876,-86.87 375.036,-375.03 275.49,275.42"
         style="fill:#231f20;fill-opacity:1;fill-rule:nonzero;stroke:none"
         id="path44" />
      <path
         d="m 2068.39,2550.97 h 140.85 l 0.04,42.68 -0.04,-0.02 0.02,15.16 c -2.33,42.34 -37.23,76.03 -80.15,76.2 -0.12,0 -0.2,0.04 -0.29,0.04 -0.13,-0.04 -0.2,0 -0.3,-0.04 h -104.79 l -0.04,295.88 -122.02,-0.02 -0.02,-295.86 h -99.91 l -0.05,396.42 -122.85,-0.03 0.02,-530.4 389.53,-0.01"
         style="fill:#231f20;fill-opacity:1;fill-rule:nonzero;stroke:none"
         id="path46" />
      <path
         d="m 2212.06,1794.5 30.19,30.17 v 0 l 10.67,10.67 c 28.32,31.62 27.44,80.13 -2.78,110.57 -0.05,0.06 -0.14,0.17 -0.22,0.23 -0.05,0.05 -0.13,0.11 -0.2,0.2 l -74.11,74.1 209.24,209.21 -86.33,86.33 -209.23,-209.21 -70.63,70.62 280.27,280.3 -86.89,86.87 -375,-375.04 275.44,-275.44 99.58,-99.58"
         style="fill:#231f20;fill-opacity:1;fill-rule:nonzero;stroke:none"
         id="path48" />
      <path
         d="M 1679.24,2010.95 H 1455.4 v -223.54 l -158.26,158.28 -158.07,-158.06 v 223.82 H 915.535 l 158.265,158.27 -158.07,158.07 h 223.83 v 223.53 l 158.26,-158.28 158.07,158.07 v -223.79 h 223.56 L 1521.16,2169.04 Z M 1949.08,2439 h -381.5 v 381.75 l -269.76,-269.74 -269.94,269.96 v -381.5 H 646.086 L 757.773,2327.79 915.84,2169.72 645.879,1899.76 h 381.491 v -381.8 l 269.77,269.77 269.96,-269.96 v 381.49 h 381.8 l -269.78,269.78 269.96,269.96"
         style="fill:#231f20;fill-opacity:1;fill-rule:nonzero;stroke:none"
         id="path50" />
      <path
         d="M 1951.62,2441.52 H 1569.4 v 382.45 l -270.24,-270.25 -270.42,270.46 V 2442 H 646.215 L 758.113,2330.1 916.496,2171.75 646.008,1901.3 h 382.212 v -382.52 l 270.25,270.28 270.45,-270.46 v 382.18 h 382.52 l -270.28,270.28 z M 1681.27,2012.68 H 1457.02 V 1788.75 L 1298.47,1947.3 1140.12,1788.95 V 2013.2 H 916.188 L 1074.74,2171.75 916.359,2330.1 H 1140.6 v 223.94 l 158.56,-158.56 158.35,158.35 v -224.18 h 224 l -158.59,-158.59 158.35,-158.38"
         style="fill:#231f20;fill-opacity:1;fill-rule:nonzero;stroke:none"
         id="path52" />
      <path
         d="m 569.039,166.84 c -33.973,17.621 -54.609,32.242 -54.609,63.629 0,23.222 14.617,47.312 47.726,47.312 37.41,0 48.59,-29.672 56.328,-57.191 l 12.473,2.582 c -3.441,27.09 -5.59,43.848 -7.316,59.328 -16.336,5.16 -34.395,9.891 -54.172,9.891 -55.469,0 -88.582,-35.262 -88.582,-76.539 0,-48.582 43.429,-70.09 70.949,-84.711 32.25,-17.192 55.898,-32.2426 55.898,-64.0707 0,-31.3789 -19.351,-51.5898 -51.597,-51.5898 -44.289,0 -63.641,43.4297 -70.524,69.6601 l -12.465,-3.0117 c 2.579,-20.6406 8.168,-57.6289 11.61,-66.6484 3.871,-2.1602 10.32,-5.1719 21.066,-9.03128 C 516.578,3.44141 530.336,0 547.969,0 c 57.187,0 95.453,36.1094 95.453,81.2617 0,48.1683 -40.848,68.3673 -74.383,85.5783"
         style="fill:#231f20;fill-opacity:1;fill-rule:nonzero;stroke:none"
         id="path54" />
      <path
         d="m 739.227,25.7891 c -10.747,0 -24.934,6.4609 -24.934,41.2812 V 177.582 h 46.004 c 5.164,3.02 6.449,12.469 2.586,16.777 h -48.59 v 58.903 l -6.023,0.859 -27.95,-28.379 v -31.383 h -19.777 l -11.613,-12.468 1.718,-4.309 H 680.32 V 52.4492 c 0,-33.9609 15.051,-51.16014 42.141,-51.16014 3.867,0 10.746,1.72266 18.055,5.58985 l 29.246,15.05079 -3.871,11.1797 c -6.024,-3.0078 -15.911,-7.3203 -26.664,-7.3203"
         style="fill:#231f20;fill-opacity:1;fill-rule:nonzero;stroke:none"
         id="path56" />
      <path
         d="m 870.637,15.4805 c -35.262,0 -58.914,40.4179 -58.914,94.6015 0,48.578 23.218,75.238 49.879,75.238 37.414,0 57.621,-40.851 57.621,-91.1598 0,-58.8985 -21.926,-78.6797 -48.586,-78.6797 z m -4.735,184.0315 c -39.129,0 -94.168,-32.242 -94.168,-103.1917 0,-47.7305 35.258,-95.03124 94.168,-95.03124 42.571,0 93.313,33.10934 93.313,102.33194 0,53.32 -39.992,95.891 -93.313,95.891"
         style="fill:#231f20;fill-opacity:1;fill-rule:nonzero;stroke:none"
         id="path58" />
      <path
         d="m 1078.15,30.5313 c -24.08,0 -64.93,19.7695 -64.93,79.5507 0,45.148 24.94,68.797 53.32,68.797 15.05,0 30.1,-5.598 43,-17.641 3.87,-3.437 6.02,-4.718 8.17,-4.718 4.73,0 14.19,9.46 14.19,18.48 0,4.738 -1.29,8.609 -6.88,13.328 -6.88,5.602 -21.07,11.184 -38.27,11.184 -16.77,0 -42.57,-6.871 -64.93,-24.082 -28.812,-22.352 -43.004,-51.16 -43.004,-84.2816 0,-46 31.824,-89.85934 86.004,-89.85934 25.37,0 54.18,18.92184 73.1,43.85934 l -7.31,9.0235 c -19.78,-18.4805 -33.97,-23.6406 -52.46,-23.6406"
         style="fill:#231f20;fill-opacity:1;fill-rule:nonzero;stroke:none"
         id="path60" />
      <path
         d="m 1309.57,41.2813 c -14.62,15.0507 -58.05,65.7777 -66.65,78.6797 18.49,21.508 26.23,30.098 36.98,40.848 16.77,15.91 25.8,20.222 55.47,25.371 v 10.761 l -87.72,-3.871 v -11.179 c 20.21,-2.153 21.5,-5.602 12.9,-18.93 -8.17,-11.602 -21.07,-28.383 -30.53,-37.832 -6.45,-6.887 -14.19,-12.469 -27.09,-15.047 v 146.59 8.758 36.031 c -16.77,-5.59 -41.28,-12.902 -61.92,-15.051 v -9.89 c 21.36,-2.098 27.09,-3.918 28.35,-19.848 h 0.01 c 0,-0.723 0.02,-1.363 0.02,-2.121 V 51.1602 c 0,-27.5196 -2.58,-30.9493 -31.39,-33.5313 V 6.44922 h 96.32 V 17.6289 c -27.52,2.582 -31.39,5.1524 -31.39,33.5313 v 47.7382 c 3.01,0.8633 5.16,1.2926 6.88,1.2926 3.87,0 7.74,-2.1519 13.33,-9.4722 23.65,-28.7969 50.74,-63.1993 70.52,-85.12896 l 58.91,0.85938 V 17.6289 c -16.34,0.8594 -27.52,7.3008 -43,23.6524"
         style="fill:#231f20;fill-opacity:1;fill-rule:nonzero;stroke:none"
         id="path62" />
      <path
         d="m 1679.92,15.4805 c -35.26,0 -58.91,40.4179 -58.91,94.6015 0,48.578 23.22,75.238 49.88,75.238 37.41,0 57.62,-40.851 57.62,-91.1598 0,-58.8985 -21.93,-78.6797 -48.59,-78.6797 z m -4.73,184.0315 c -39.13,0 -94.17,-32.242 -94.17,-103.1917 0,-47.7305 35.26,-95.03124 94.17,-95.03124 42.57,0 93.31,33.10934 93.31,102.33194 0,53.32 -39.99,95.891 -93.31,95.891"
         style="fill:#231f20;fill-opacity:1;fill-rule:nonzero;stroke:none"
         id="path64" />
      <path
         d="m 2183.66,50.7305 v 82.9885 c 0,42.14 -21.08,65.793 -54.61,65.793 -12.04,0 -23.22,-5.153 -32.25,-11.184 -10.75,-6.437 -23.22,-14.617 -35.69,-24.078 -8.6,22.359 -27.09,35.262 -47.74,35.262 -13.76,0 -24.07,-4.723 -35.25,-11.614 -12.9,-8.16 -22.36,-15.906 -31.39,-21.918 v 34.821 c -18.92,-8.59 -40.85,-14.192 -59.77,-17.621 v -9.899 c 24.94,-3.859 26.23,-6.011 26.23,-33.531 V 50.7305 c 0,-27.9492 -3.87,-30.5196 -32.25,-33.1016 V 6.44922 h 90.73 V 17.6289 c -21.07,2.582 -24.51,5.1524 -24.51,33.1016 V 151.789 c 12.9,10.742 29.67,22.352 46.87,22.352 26.23,0 37.41,-17.621 37.41,-49.442 V 50.7305 c 0,-28.3711 -3.87,-30.5196 -30.53,-33.1016 V 6.44922 h 92.01 V 17.6289 c -23.64,2.582 -27.51,5.1524 -27.51,32.2422 v 83.8479 c 0,8.179 -0.43,12.902 -1.29,18.07 16.33,13.762 32.68,22.352 48.16,22.352 27.09,0 37.83,-19.34 37.83,-49.871 V 52.4492 c 0,-30.5195 -4.72,-32.2383 -30.1,-34.8203 V 6.44922 h 91.6 V 17.6289 c -24.52,2.582 -27.95,4.3008 -27.95,33.1016"
         style="fill:#231f20;fill-opacity:1;fill-rule:nonzero;stroke:none"
         id="path66" />
      <path
         d="m 1547.26,50.7305 v 75.2575 c 0,51.594 -24.51,73.524 -59.34,73.524 -23.22,0 -46.44,-15.903 -61.49,-31.383 v 78.43 10 44.793 c -16.77,-5.161 -42.57,-12.043 -63.2,-15.051 v -9.891 c 27.65,-2.512 29.17,-4.691 29.23,-29.851 h 0.01 V 50.7305 c 0,-28.3711 -3.88,-30.9492 -29.67,-33.1016 V 6.44922 h 91.15 V 17.6289 c -25.37,2.582 -27.52,5.582 -27.52,33.1016 V 153.078 c 12.04,13.762 28.38,21.922 44.72,21.922 28.82,0 42.15,-17.629 42.15,-52.891 V 50.7305 c 0,-27.9492 -3.45,-30.5196 -28.39,-33.1016 V 6.44922 h 90.73 V 17.6289 c -25.37,2.1524 -28.38,4.7305 -28.38,33.1016"
         style="fill:#231f20;fill-opacity:1;fill-rule:nonzero;stroke:none"
         id="path68" />
      <path
         d="M 1837.55,51.1602 V 301.559 c -14.62,-5.161 -41.28,-12.469 -63.63,-15.047 v -10.321 c 27.09,-2.152 29.67,-3.441 29.67,-32.679 V 236.98 51.1602 c 0,-28.3789 -3.88,-30.9493 -30.97,-33.5313 V 6.44922 h 95.89 V 17.6289 c -27.52,2.582 -30.96,5.1524 -30.96,33.5313"
         style="fill:#231f20;fill-opacity:1;fill-rule:nonzero;stroke:none"
         id="path70" />
    </g>
  </g>
</svg>
